<?xml version="1.0" encoding="UTF-8" standalone="no"?>
<!DOCTYPE svg PUBLIC "-//W3C//DTD SVG 1.1//EN"
 "http://www.w3.org/Graphics/SVG/1.1/DTD/svg11.dtd">
<!-- Generated by graphviz version 2.40.1 (20161225.0304)
 -->
<!-- Title: dependencies Pages: 1 -->
<svg width="4484pt" height="436pt"
 viewBox="0.00 0.00 4484.00 436.00" xmlns="http://www.w3.org/2000/svg" xmlns:xlink="http://www.w3.org/1999/xlink">
<g id="graph0" class="graph" transform="scale(1 1) rotate(0) translate(4 432)">
<title>dependencies</title>
<polygon fill="#ffffff" stroke="transparent" points="-4,4 -4,-432 4480,-432 4480,4 -4,4"/>
<text text-anchor="start" x="2217.0091" y="-42.4" font-family="sans-serif" font-weight="bold" font-size="14.00" fill="#000000">Legend</text>
<polygon fill="#ffffb3" stroke="transparent" points="2004,-10 2004,-30 2024,-30 2024,-10 2004,-10"/>
<text text-anchor="start" x="2027.629" y="-15.4" font-family="sans-serif" font-size="14.00" fill="#000000"> &#160;Declarations</text>
<polygon fill="#8dd3c7" stroke="transparent" points="2117,-10 2117,-30 2137,-30 2137,-10 2117,-10"/>
<text text-anchor="start" x="2140.7251" y="-15.4" font-family="sans-serif" font-size="14.00" fill="#000000"> &#160;Module</text>
<polygon fill="#80b1d3" stroke="transparent" points="2203,-10 2203,-30 2223,-30 2223,-10 2203,-10"/>
<text text-anchor="start" x="2226.7812" y="-15.4" font-family="sans-serif" font-size="14.00" fill="#000000"> &#160;Bootstrap</text>
<polygon fill="#fdb462" stroke="transparent" points="2300,-10 2300,-30 2320,-30 2320,-10 2300,-10"/>
<text text-anchor="start" x="2323.6732" y="-15.4" font-family="sans-serif" font-size="14.00" fill="#000000"> &#160;Providers</text>
<polygon fill="#fb8072" stroke="transparent" points="2396,-10 2396,-30 2416,-30 2416,-10 2396,-10"/>
<text text-anchor="start" x="2419.7258" y="-15.4" font-family="sans-serif" font-size="14.00" fill="#000000"> &#160;Exports</text>
<g id="clust1" class="cluster">
<title>cluster_AppModule</title>
<polygon fill="none" stroke="#000000" stroke-dasharray="1,5" points="560,-222 560,-420 1214,-420 1214,-222 560,-222"/>
</g>
<g id="clust2" class="cluster">
<title>cluster_AppModule_declarations</title>
<polygon fill="none" stroke="#000000" points="1084,-230 1084,-282 1206,-282 1206,-230 1084,-230"/>
</g>
<g id="clust4" class="cluster">
<title>cluster_AppModule_imports</title>
<polygon fill="none" stroke="#000000" points="568,-230 568,-282 1076,-282 1076,-230 568,-230"/>
</g>
<g id="clust6" class="cluster">
<title>cluster_AppModule_bootstrap</title>
<polygon fill="none" stroke="#000000" points="788,-360 788,-412 912,-412 912,-360 788,-360"/>
</g>
<g id="clust14" class="cluster">
<title>cluster_ClientsModule</title>
<polygon fill="none" stroke="#000000" stroke-dasharray="1,5" points="1537,-70 1537,-290 2426,-290 2426,-70 1537,-70"/>
</g>
<g id="clust15" class="cluster">
<title>cluster_ClientsModule_declarations</title>
<polygon fill="none" stroke="#000000" points="1545,-78 1545,-130 2134,-130 2134,-78 1545,-78"/>
</g>
<g id="clust20" class="cluster">
<title>cluster_ClientsModule_imports</title>
<polygon fill="none" stroke="#000000" points="2142,-78 2142,-130 2418,-130 2418,-78 2142,-78"/>
</g>
<g id="clust21" class="cluster">
<title>cluster_ClientsModule_exports</title>
<polygon fill="none" stroke="#000000" points="1913,-230 1913,-282 2053,-282 2053,-230 1913,-230"/>
</g>
<g id="clust30" class="cluster">
<title>cluster_LoginModule</title>
<polygon fill="none" stroke="#000000" stroke-dasharray="1,5" points="664,-146 664,-214 1111,-214 1111,-146 664,-146"/>
</g>
<g id="clust31" class="cluster">
<title>cluster_LoginModule_declarations</title>
<polygon fill="none" stroke="#000000" points="973,-154 973,-206 1103,-206 1103,-154 973,-154"/>
</g>
<g id="clust33" class="cluster">
<title>cluster_LoginModule_imports</title>
<polygon fill="none" stroke="#000000" points="672,-154 672,-206 965,-206 965,-154 672,-154"/>
</g>
<g id="clust43" class="cluster">
<title>cluster_PageNotFoundModule</title>
<polygon fill="none" stroke="#000000" stroke-dasharray="1,5" points="1119,-146 1119,-214 1529,-214 1529,-146 1119,-146"/>
</g>
<g id="clust44" class="cluster">
<title>cluster_PageNotFoundModule_declarations</title>
<polygon fill="none" stroke="#000000" points="1339,-154 1339,-206 1521,-206 1521,-154 1339,-154"/>
</g>
<g id="clust46" class="cluster">
<title>cluster_PageNotFoundModule_imports</title>
<polygon fill="none" stroke="#000000" points="1127,-154 1127,-206 1331,-206 1331,-154 1127,-154"/>
</g>
<g id="clust56" class="cluster">
<title>cluster_PrestationsModule</title>
<polygon fill="none" stroke="#000000" stroke-dasharray="1,5" points="214,-70 214,-138 1266,-138 1266,-70 214,-70"/>
</g>
<g id="clust57" class="cluster">
<title>cluster_PrestationsModule_declarations</title>
<polygon fill="none" stroke="#000000" points="582,-78 582,-130 1258,-130 1258,-78 582,-78"/>
</g>
<g id="clust62" class="cluster">
<title>cluster_PrestationsModule_imports</title>
<polygon fill="none" stroke="#000000" points="392,-78 392,-130 574,-130 574,-78 392,-78"/>
</g>
<g id="clust63" class="cluster">
<title>cluster_PrestationsModule_exports</title>
<polygon fill="none" stroke="#000000" points="222,-78 222,-130 384,-130 384,-78 222,-78"/>
</g>
<g id="clust72" class="cluster">
<title>cluster_SharedModule</title>
<polygon fill="none" stroke="#000000" stroke-dasharray="1,5" points="2434,-146 2434,-214 4468,-214 4468,-146 2434,-146"/>
</g>
<g id="clust73" class="cluster">
<title>cluster_SharedModule_declarations</title>
<polygon fill="none" stroke="#000000" points="3467,-154 3467,-206 4460,-206 4460,-154 3467,-154"/>
</g>
<g id="clust82" class="cluster">
<title>cluster_SharedModule_exports</title>
<polygon fill="none" stroke="#000000" points="2442,-154 2442,-206 3459,-206 3459,-154 2442,-154"/>
</g>
<g id="clust85" class="cluster">
<title>cluster_UiModule</title>
<polygon fill="none" stroke="#000000" stroke-dasharray="1,5" points="8,-146 8,-214 656,-214 656,-146 8,-146"/>
</g>
<g id="clust86" class="cluster">
<title>cluster_UiModule_declarations</title>
<polygon fill="none" stroke="#000000" points="138,-154 138,-206 648,-206 648,-154 138,-154"/>
</g>
<g id="clust92" class="cluster">
<title>cluster_UiModule_exports</title>
<polygon fill="none" stroke="#000000" points="16,-154 16,-206 130,-206 130,-154 16,-154"/>
</g>
<!-- AppComponent -->
<g id="node1" class="node">
<title>AppComponent</title>
<polygon fill="#ffffb3" stroke="#000000" points="1197.9399,-274 1092.0601,-274 1092.0601,-238 1197.9399,-238 1197.9399,-274"/>
<text text-anchor="middle" x="1145" y="-251.8" font-family="Times,serif" font-size="14.00" fill="#000000">AppComponent</text>
</g>
<!-- AppModule -->
<g id="node2" class="node">
<title>AppModule</title>
<polygon fill="#8dd3c7" stroke="#000000" points="891.6571,-339 888.6571,-343 867.6571,-343 864.6571,-339 808.3429,-339 808.3429,-303 891.6571,-303 891.6571,-339"/>
<text text-anchor="middle" x="850" y="-316.8" font-family="Times,serif" font-size="14.00" fill="#000000">AppModule</text>
</g>
<!-- AppComponent&#45;&gt;AppModule -->
<g id="edge1" class="edge">
<title>AppComponent&#45;&gt;AppModule</title>
<path fill="none" stroke="#000000" d="M1145,-274.2843C1145,-295.3211 1145,-327 1145,-327 1145,-327 901.953,-327 901.953,-327"/>
<polygon fill="#000000" stroke="#000000" points="901.9531,-323.5001 891.953,-327 901.953,-330.5001 901.9531,-323.5001"/>
</g>
<!-- AppComponent  -->
<g id="node7" class="node">
<title>AppComponent </title>
<polygon fill="#80b1d3" stroke="#000000" points="904.439,-404 795.561,-404 795.561,-368 904.439,-368 904.439,-404"/>
<text text-anchor="middle" x="850" y="-381.8" font-family="Times,serif" font-size="14.00" fill="#000000">AppComponent </text>
</g>
<!-- AppModule&#45;&gt;AppComponent  -->
<g id="edge6" class="edge">
<title>AppModule&#45;&gt;AppComponent </title>
<path fill="none" stroke="#000000" stroke-dasharray="1,5" d="M850,-339.1061C850,-339.1061 850,-357.991 850,-357.991"/>
<polygon fill="#000000" stroke="#000000" points="846.5001,-357.9909 850,-367.991 853.5001,-357.991 846.5001,-357.9909"/>
</g>
<!-- AppRoutingModule -->
<g id="node3" class="node">
<title>AppRoutingModule</title>
<polygon fill="#8dd3c7" stroke="#000000" points="1068.2744,-274 1065.2744,-278 1044.2744,-278 1041.2744,-274 939.7256,-274 939.7256,-238 1068.2744,-238 1068.2744,-274"/>
<text text-anchor="middle" x="1004" y="-251.8" font-family="Times,serif" font-size="14.00" fill="#000000">AppRoutingModule</text>
</g>
<!-- AppRoutingModule&#45;&gt;AppModule -->
<g id="edge2" class="edge">
<title>AppRoutingModule&#45;&gt;AppModule</title>
<path fill="none" stroke="#000000" d="M1004,-274.0225C1004,-291.3734 1004,-315 1004,-315 1004,-315 901.6746,-315 901.6746,-315"/>
<polygon fill="#000000" stroke="#000000" points="901.6747,-311.5001 891.6746,-315 901.6746,-318.5001 901.6747,-311.5001"/>
</g>
<!-- LoginModule -->
<g id="node4" class="node">
<title>LoginModule</title>
<polygon fill="#8dd3c7" stroke="#000000" points="760.493,-274 757.493,-278 736.493,-278 733.493,-274 667.507,-274 667.507,-238 760.493,-238 760.493,-274"/>
<text text-anchor="middle" x="714" y="-251.8" font-family="Times,serif" font-size="14.00" fill="#000000">LoginModule</text>
</g>
<!-- LoginModule&#45;&gt;AppModule -->
<g id="edge3" class="edge">
<title>LoginModule&#45;&gt;AppModule</title>
<path fill="none" stroke="#000000" d="M714,-274.0225C714,-291.3734 714,-315 714,-315 714,-315 798.0858,-315 798.0858,-315"/>
<polygon fill="#000000" stroke="#000000" points="798.0858,-318.5001 808.0858,-315 798.0858,-311.5001 798.0858,-318.5001"/>
</g>
<!-- PageNotFoundModule -->
<g id="node5" class="node">
<title>PageNotFoundModule</title>
<polygon fill="#8dd3c7" stroke="#000000" points="921.5421,-274 918.5421,-278 897.5421,-278 894.5421,-274 778.4579,-274 778.4579,-238 921.5421,-238 921.5421,-274"/>
<text text-anchor="middle" x="850" y="-251.8" font-family="Times,serif" font-size="14.00" fill="#000000">PageNotFoundModule</text>
</g>
<!-- PageNotFoundModule&#45;&gt;AppModule -->
<g id="edge4" class="edge">
<title>PageNotFoundModule&#45;&gt;AppModule</title>
<path fill="none" stroke="#000000" d="M850,-274.1061C850,-274.1061 850,-292.991 850,-292.991"/>
<polygon fill="#000000" stroke="#000000" points="846.5001,-292.9909 850,-302.991 853.5001,-292.991 846.5001,-292.9909"/>
</g>
<!-- UiModule -->
<g id="node6" class="node">
<title>UiModule</title>
<polygon fill="#8dd3c7" stroke="#000000" points="649.5484,-274 646.5484,-278 625.5484,-278 622.5484,-274 576.4516,-274 576.4516,-238 649.5484,-238 649.5484,-274"/>
<text text-anchor="middle" x="613" y="-251.8" font-family="Times,serif" font-size="14.00" fill="#000000">UiModule</text>
</g>
<!-- UiModule&#45;&gt;AppModule -->
<g id="edge5" class="edge">
<title>UiModule&#45;&gt;AppModule</title>
<path fill="none" stroke="#000000" d="M613,-274.2843C613,-295.3211 613,-327 613,-327 613,-327 798.1747,-327 798.1747,-327"/>
<polygon fill="#000000" stroke="#000000" points="798.1747,-330.5001 808.1747,-327 798.1747,-323.5001 798.1747,-330.5001"/>
</g>
<!-- UiComponent  -->
<g id="node45" class="node">
<title>UiComponent </title>
<polygon fill="#fb8072" stroke="#000000" points="122.3297,-198 23.6703,-198 23.6703,-162 122.3297,-162 122.3297,-198"/>
<text text-anchor="middle" x="73" y="-175.8" font-family="Times,serif" font-size="14.00" fill="#000000">UiComponent </text>
</g>
<!-- UiModule&#45;&gt;UiComponent  -->
<g id="edge44" class="edge">
<title>UiModule&#45;&gt;UiComponent </title>
<path fill="none" stroke="#000000" stroke-dasharray="5,2" d="M576.3081,-267C454.7686,-267 73,-267 73,-267 73,-267 73,-208.0265 73,-208.0265"/>
<polygon fill="#000000" stroke="#000000" points="76.5001,-208.0264 73,-198.0265 69.5001,-208.0265 76.5001,-208.0264"/>
</g>
<!-- AddClientComponent -->
<g id="node8" class="node">
<title>AddClientComponent</title>
<polygon fill="#ffffb3" stroke="#000000" points="2125.6624,-122 1986.3376,-122 1986.3376,-86 2125.6624,-86 2125.6624,-122"/>
<text text-anchor="middle" x="2056" y="-99.8" font-family="Times,serif" font-size="14.00" fill="#000000">AddClientComponent</text>
</g>
<!-- ClientsModule -->
<g id="node12" class="node">
<title>ClientsModule</title>
<polygon fill="#8dd3c7" stroke="#000000" points="2032.7176,-198 2029.7176,-202 2008.7176,-202 2005.7176,-198 1933.2824,-198 1933.2824,-162 2032.7176,-162 2032.7176,-198"/>
<text text-anchor="middle" x="1983" y="-175.8" font-family="Times,serif" font-size="14.00" fill="#000000">ClientsModule</text>
</g>
<!-- AddClientComponent&#45;&gt;ClientsModule -->
<g id="edge7" class="edge">
<title>AddClientComponent&#45;&gt;ClientsModule</title>
<path fill="none" stroke="#000000" d="M2009.3889,-122.0109C2009.3889,-122.0109 2009.3889,-151.855 2009.3889,-151.855"/>
<polygon fill="#000000" stroke="#000000" points="2005.8889,-151.8549 2009.3889,-161.855 2012.8889,-151.855 2005.8889,-151.8549"/>
</g>
<!-- ClientComponent -->
<g id="node9" class="node">
<title>ClientComponent</title>
<polygon fill="#ffffb3" stroke="#000000" points="1967.5563,-122 1852.4437,-122 1852.4437,-86 1967.5563,-86 1967.5563,-122"/>
<text text-anchor="middle" x="1910" y="-99.8" font-family="Times,serif" font-size="14.00" fill="#000000">ClientComponent</text>
</g>
<!-- ClientComponent&#45;&gt;ClientsModule -->
<g id="edge8" class="edge">
<title>ClientComponent&#45;&gt;ClientsModule</title>
<path fill="none" stroke="#000000" d="M1950.5845,-122.0109C1950.5845,-122.0109 1950.5845,-151.855 1950.5845,-151.855"/>
<polygon fill="#000000" stroke="#000000" points="1947.0846,-151.8549 1950.5845,-161.855 1954.0846,-151.855 1947.0846,-151.8549"/>
</g>
<!-- ClientsComponent -->
<g id="node10" class="node">
<title>ClientsComponent</title>
<polygon fill="#ffffb3" stroke="#000000" points="1834.5,-122 1713.5,-122 1713.5,-86 1834.5,-86 1834.5,-122"/>
<text text-anchor="middle" x="1774" y="-99.8" font-family="Times,serif" font-size="14.00" fill="#000000">ClientsComponent</text>
</g>
<!-- ClientsComponent&#45;&gt;ClientsModule -->
<g id="edge9" class="edge">
<title>ClientsComponent&#45;&gt;ClientsModule</title>
<path fill="none" stroke="#000000" d="M1774,-122.0267C1774,-142.7672 1774,-174 1774,-174 1774,-174 1923.2048,-174 1923.2048,-174"/>
<polygon fill="#000000" stroke="#000000" points="1923.2049,-177.5001 1933.2048,-174 1923.2048,-170.5001 1923.2049,-177.5001"/>
</g>
<!-- ListClientsComponent -->
<g id="node11" class="node">
<title>ListClientsComponent</title>
<polygon fill="#ffffb3" stroke="#000000" points="1695.2786,-122 1552.7214,-122 1552.7214,-86 1695.2786,-86 1695.2786,-122"/>
<text text-anchor="middle" x="1624" y="-99.8" font-family="Times,serif" font-size="14.00" fill="#000000">ListClientsComponent</text>
</g>
<!-- ListClientsComponent&#45;&gt;ClientsModule -->
<g id="edge10" class="edge">
<title>ListClientsComponent&#45;&gt;ClientsModule</title>
<path fill="none" stroke="#000000" d="M1624,-122.1985C1624,-146.3563 1624,-186 1624,-186 1624,-186 1923.0826,-186 1923.0826,-186"/>
<polygon fill="#000000" stroke="#000000" points="1923.0826,-189.5001 1933.0826,-186 1923.0826,-182.5001 1923.0826,-189.5001"/>
</g>
<!-- ClientsComponent  -->
<g id="node15" class="node">
<title>ClientsComponent </title>
<polygon fill="#fb8072" stroke="#000000" points="2045.501,-274 1920.499,-274 1920.499,-238 2045.501,-238 2045.501,-274"/>
<text text-anchor="middle" x="1983" y="-251.8" font-family="Times,serif" font-size="14.00" fill="#000000">ClientsComponent </text>
</g>
<!-- ClientsModule&#45;&gt;ClientsComponent  -->
<g id="edge13" class="edge">
<title>ClientsModule&#45;&gt;ClientsComponent </title>
<path fill="none" stroke="#000000" stroke-dasharray="5,2" d="M1983,-198.0109C1983,-198.0109 1983,-227.855 1983,-227.855"/>
<polygon fill="#000000" stroke="#000000" points="1979.5001,-227.8549 1983,-237.855 1986.5001,-227.855 1979.5001,-227.8549"/>
</g>
<!-- ClientsRoutingModule -->
<g id="node13" class="node">
<title>ClientsRoutingModule</title>
<polygon fill="#8dd3c7" stroke="#000000" points="2294.3356,-122 2291.3356,-126 2270.3356,-126 2267.3356,-122 2149.6644,-122 2149.6644,-86 2294.3356,-86 2294.3356,-122"/>
<text text-anchor="middle" x="2222" y="-99.8" font-family="Times,serif" font-size="14.00" fill="#000000">ClientsRoutingModule</text>
</g>
<!-- ClientsRoutingModule&#45;&gt;ClientsModule -->
<g id="edge11" class="edge">
<title>ClientsRoutingModule&#45;&gt;ClientsModule</title>
<path fill="none" stroke="#000000" d="M2222,-122.308C2222,-142.1455 2222,-171 2222,-171 2222,-171 2042.8113,-171 2042.8113,-171"/>
<polygon fill="#000000" stroke="#000000" points="2042.8113,-167.5001 2032.8113,-171 2042.8113,-174.5001 2042.8113,-167.5001"/>
</g>
<!-- SharedModule -->
<g id="node14" class="node">
<title>SharedModule</title>
<polygon fill="#8dd3c7" stroke="#000000" points="2410.4231,-122 2407.4231,-126 2386.4231,-126 2383.4231,-122 2311.5769,-122 2311.5769,-86 2410.4231,-86 2410.4231,-122"/>
<text text-anchor="middle" x="2361" y="-99.8" font-family="Times,serif" font-size="14.00" fill="#000000">SharedModule</text>
</g>
<!-- SharedModule&#45;&gt;ClientsModule -->
<g id="edge12" class="edge">
<title>SharedModule&#45;&gt;ClientsModule</title>
<path fill="none" stroke="#000000" d="M2361,-122.0109C2361,-144.4852 2361,-180 2361,-180 2361,-180 2042.8056,-180 2042.8056,-180"/>
<polygon fill="#000000" stroke="#000000" points="2042.8056,-176.5001 2032.8056,-180 2042.8056,-183.5001 2042.8056,-176.5001"/>
</g>
<!-- PrestationsModule -->
<g id="node18" class="node">
<title>PrestationsModule</title>
<polygon fill="#8dd3c7" stroke="#000000" points="800.4832,-198 797.4832,-202 776.4832,-202 773.4832,-198 679.5168,-198 679.5168,-162 800.4832,-162 800.4832,-198"/>
<text text-anchor="middle" x="740" y="-175.8" font-family="Times,serif" font-size="14.00" fill="#000000">PrestationsModule</text>
</g>
<!-- SharedModule&#45;&gt;PrestationsModule -->
<g id="edge24" class="edge">
<title>SharedModule&#45;&gt;PrestationsModule</title>
<path fill="none" stroke="#000000" d="M2336.3944,-122.1871C2336.3944,-137.1824 2336.3944,-156 2336.3944,-156 2336.3944,-156 790.4612,-156 790.4612,-156 790.4612,-156 790.4612,-156.581 790.4612,-156.581"/>
<polygon fill="#000000" stroke="#000000" points="786.9614,-151.8097 790.4612,-161.8097 793.9614,-151.8098 786.9614,-151.8097"/>
</g>
<!-- AddRowComponent  -->
<g id="node34" class="node">
<title>AddRowComponent </title>
<polygon fill="#fb8072" stroke="#000000" points="2850.8827,-198 2715.1173,-198 2715.1173,-162 2850.8827,-162 2850.8827,-198"/>
<text text-anchor="middle" x="2783" y="-175.8" font-family="Times,serif" font-size="14.00" fill="#000000">AddRowComponent </text>
</g>
<!-- SharedModule&#45;&gt;AddRowComponent  -->
<g id="edge33" class="edge">
<title>SharedModule&#45;&gt;AddRowComponent </title>
<path fill="none" stroke="#000000" stroke-dasharray="5,2" d="M2410.2347,-117C2521.5536,-117 2783,-117 2783,-117 2783,-117 2783,-151.7778 2783,-151.7778"/>
<polygon fill="#000000" stroke="#000000" points="2779.5001,-151.7778 2783,-161.7778 2786.5001,-151.7778 2779.5001,-151.7778"/>
</g>
<!-- StateDirective  -->
<g id="node35" class="node">
<title>StateDirective </title>
<polygon fill="#fb8072" stroke="#000000" points="2697.5767,-198 2598.4233,-198 2598.4233,-162 2697.5767,-162 2697.5767,-198"/>
<text text-anchor="middle" x="2648" y="-175.8" font-family="Times,serif" font-size="14.00" fill="#000000">StateDirective </text>
</g>
<!-- SharedModule&#45;&gt;StateDirective  -->
<g id="edge34" class="edge">
<title>SharedModule&#45;&gt;StateDirective </title>
<path fill="none" stroke="#000000" stroke-dasharray="5,2" d="M2410.3371,-120C2492.3946,-120 2648,-120 2648,-120 2648,-120 2648,-151.998 2648,-151.998"/>
<polygon fill="#000000" stroke="#000000" points="2644.5001,-151.998 2648,-161.998 2651.5001,-151.9981 2644.5001,-151.998"/>
</g>
<!-- TableauComponent  -->
<g id="node36" class="node">
<title>TableauComponent </title>
<polygon fill="#fb8072" stroke="#000000" points="2579.9194,-198 2450.0806,-198 2450.0806,-162 2579.9194,-162 2579.9194,-198"/>
<text text-anchor="middle" x="2515" y="-175.8" font-family="Times,serif" font-size="14.00" fill="#000000">TableauComponent </text>
</g>
<!-- SharedModule&#45;&gt;TableauComponent  -->
<g id="edge35" class="edge">
<title>SharedModule&#45;&gt;TableauComponent </title>
<path fill="none" stroke="#000000" stroke-dasharray="5,2" d="M2385.6056,-122.0263C2385.6056,-146.9773 2385.6056,-189 2385.6056,-189 2385.6056,-189 2439.9237,-189 2439.9237,-189"/>
<polygon fill="#000000" stroke="#000000" points="2439.9237,-192.5001 2449.9237,-189 2439.9237,-185.5001 2439.9237,-192.5001"/>
</g>
<!-- TableauLightComponent  -->
<g id="node37" class="node">
<title>TableauLightComponent </title>
<polygon fill="#fb8072" stroke="#000000" points="3451.2534,-198 3290.7466,-198 3290.7466,-162 3451.2534,-162 3451.2534,-198"/>
<text text-anchor="middle" x="3371" y="-175.8" font-family="Times,serif" font-size="14.00" fill="#000000">TableauLightComponent </text>
</g>
<!-- SharedModule&#45;&gt;TableauLightComponent  -->
<g id="edge36" class="edge">
<title>SharedModule&#45;&gt;TableauLightComponent </title>
<path fill="none" stroke="#000000" stroke-dasharray="5,2" d="M2410.3981,-107C2613.1754,-107 3371,-107 3371,-107 3371,-107 3371,-151.9551 3371,-151.9551"/>
<polygon fill="#000000" stroke="#000000" points="3367.5001,-151.955 3371,-161.9551 3374.5001,-151.9551 3367.5001,-151.955"/>
</g>
<!-- TemplateAComponent  -->
<g id="node38" class="node">
<title>TemplateAComponent </title>
<polygon fill="#fb8072" stroke="#000000" points="3272.8073,-198 3125.1927,-198 3125.1927,-162 3272.8073,-162 3272.8073,-198"/>
<text text-anchor="middle" x="3199" y="-175.8" font-family="Times,serif" font-size="14.00" fill="#000000">TemplateAComponent </text>
</g>
<!-- SharedModule&#45;&gt;TemplateAComponent  -->
<g id="edge37" class="edge">
<title>SharedModule&#45;&gt;TemplateAComponent </title>
<path fill="none" stroke="#000000" stroke-dasharray="5,2" d="M2410.2922,-110C2589.9224,-110 3199,-110 3199,-110 3199,-110 3199,-151.9733 3199,-151.9733"/>
<polygon fill="#000000" stroke="#000000" points="3195.5001,-151.9732 3199,-161.9733 3202.5001,-151.9733 3195.5001,-151.9732"/>
</g>
<!-- TemplateBComponent  -->
<g id="node39" class="node">
<title>TemplateBComponent </title>
<polygon fill="#fb8072" stroke="#000000" points="3107.5372,-198 2960.4628,-198 2960.4628,-162 3107.5372,-162 3107.5372,-198"/>
<text text-anchor="middle" x="3034" y="-175.8" font-family="Times,serif" font-size="14.00" fill="#000000">TemplateBComponent </text>
</g>
<!-- SharedModule&#45;&gt;TemplateBComponent  -->
<g id="edge38" class="edge">
<title>SharedModule&#45;&gt;TemplateBComponent </title>
<path fill="none" stroke="#000000" stroke-dasharray="5,2" d="M2410.2146,-112C2565.3601,-112 3034,-112 3034,-112 3034,-112 3034,-151.7772 3034,-151.7772"/>
<polygon fill="#000000" stroke="#000000" points="3030.5001,-151.7772 3034,-161.7772 3037.5001,-151.7773 3030.5001,-151.7772"/>
</g>
<!-- TotalPipe  -->
<g id="node40" class="node">
<title>TotalPipe </title>
<polygon fill="#fb8072" stroke="#000000" points="2942.9362,-198 2869.0638,-198 2869.0638,-162 2942.9362,-162 2942.9362,-198"/>
<text text-anchor="middle" x="2906" y="-175.8" font-family="Times,serif" font-size="14.00" fill="#000000">TotalPipe </text>
</g>
<!-- SharedModule&#45;&gt;TotalPipe  -->
<g id="edge39" class="edge">
<title>SharedModule&#45;&gt;TotalPipe </title>
<path fill="none" stroke="#000000" stroke-dasharray="5,2" d="M2410.3263,-115C2544.483,-115 2906,-115 2906,-115 2906,-115 2906,-151.8939 2906,-151.8939"/>
<polygon fill="#000000" stroke="#000000" points="2902.5001,-151.8938 2906,-161.8939 2909.5001,-151.8939 2902.5001,-151.8938"/>
</g>
<!-- LoginComponent -->
<g id="node16" class="node">
<title>LoginComponent</title>
<polygon fill="#ffffb3" stroke="#000000" points="1095.2758,-198 980.7242,-198 980.7242,-162 1095.2758,-162 1095.2758,-198"/>
<text text-anchor="middle" x="1038" y="-175.8" font-family="Times,serif" font-size="14.00" fill="#000000">LoginComponent</text>
</g>
<!-- LoginComponent&#45;&gt;LoginModule -->
<g id="edge14" class="edge">
<title>LoginComponent&#45;&gt;LoginModule</title>
<path fill="none" stroke="#000000" d="M1024.4997,-198.1944C1024.4997,-206.2782 1024.4997,-214 1024.4997,-214 1024.4997,-214 740.2495,-214 740.2495,-214 740.2495,-214 740.2495,-227.9445 740.2495,-227.9445"/>
<polygon fill="#000000" stroke="#000000" points="736.7496,-227.9444 740.2495,-237.9445 743.7496,-227.9445 736.7496,-227.9444"/>
</g>
<!-- LoginRoutingModule -->
<g id="node17" class="node">
<title>LoginRoutingModule</title>
<polygon fill="#8dd3c7" stroke="#000000" points="957.1108,-198 954.1108,-202 933.1108,-202 930.1108,-198 818.8892,-198 818.8892,-162 957.1108,-162 957.1108,-198"/>
<text text-anchor="middle" x="888" y="-175.8" font-family="Times,serif" font-size="14.00" fill="#000000">LoginRoutingModule</text>
</g>
<!-- LoginRoutingModule&#45;&gt;LoginModule -->
<g id="edge15" class="edge">
<title>LoginRoutingModule&#45;&gt;LoginModule</title>
<path fill="none" stroke="#000000" d="M844.6511,-198.0579C844.6511,-202.4945 844.6511,-206 844.6511,-206 844.6511,-206 720.0025,-206 720.0025,-206 720.0025,-206 720.0025,-227.9489 720.0025,-227.9489"/>
<polygon fill="#000000" stroke="#000000" points="716.5025,-227.9488 720.0025,-237.9489 723.5025,-227.9489 716.5025,-227.9488"/>
</g>
<!-- PrestationsModule&#45;&gt;LoginModule -->
<g id="edge16" class="edge">
<title>PrestationsModule&#45;&gt;LoginModule</title>
<path fill="none" stroke="#000000" d="M699.7554,-198.0109C699.7554,-198.0109 699.7554,-227.855 699.7554,-227.855"/>
<polygon fill="#000000" stroke="#000000" points="696.2555,-227.8549 699.7554,-237.855 703.2555,-227.855 696.2555,-227.8549"/>
</g>
<!-- PrestationsComponent  -->
<g id="node26" class="node">
<title>PrestationsComponent </title>
<polygon fill="#fb8072" stroke="#000000" points="376.266,-122 229.734,-122 229.734,-86 376.266,-86 376.266,-122"/>
<text text-anchor="middle" x="303" y="-99.8" font-family="Times,serif" font-size="14.00" fill="#000000">PrestationsComponent </text>
</g>
<!-- PrestationsModule&#45;&gt;PrestationsComponent  -->
<g id="edge25" class="edge">
<title>PrestationsModule&#45;&gt;PrestationsComponent </title>
<path fill="none" stroke="#000000" stroke-dasharray="5,2" d="M692.727,-161.8495C692.727,-149.7292 692.727,-136 692.727,-136 692.727,-136 331.0963,-136 331.0963,-136 331.0963,-136 331.0963,-132.2434 331.0963,-132.2434"/>
<polygon fill="#000000" stroke="#000000" points="334.5963,-132.2434 331.0963,-122.2434 327.5963,-132.2434 334.5963,-132.2434"/>
</g>
<!-- PageNotFoundComponent -->
<g id="node19" class="node">
<title>PageNotFoundComponent</title>
<polygon fill="#ffffb3" stroke="#000000" points="1512.8243,-198 1347.1757,-198 1347.1757,-162 1512.8243,-162 1512.8243,-198"/>
<text text-anchor="middle" x="1430" y="-175.8" font-family="Times,serif" font-size="14.00" fill="#000000">PageNotFoundComponent</text>
</g>
<!-- PageNotFoundComponent&#45;&gt;PageNotFoundModule -->
<g id="edge17" class="edge">
<title>PageNotFoundComponent&#45;&gt;PageNotFoundModule</title>
<path fill="none" stroke="#000000" d="M1430,-198.0511C1430,-212.373 1430,-230 1430,-230 1430,-230 896.0642,-230 896.0642,-230 896.0642,-230 896.0642,-230.7942 896.0642,-230.7942"/>
<polygon fill="#000000" stroke="#000000" points="892.5643,-227.9421 896.0642,-237.9421 899.5643,-227.9422 892.5643,-227.9421"/>
</g>
<!-- PageNotFoundRoutingModule -->
<g id="node20" class="node">
<title>PageNotFoundRoutingModule</title>
<polygon fill="#8dd3c7" stroke="#000000" points="1323.1595,-198 1320.1595,-202 1299.1595,-202 1296.1595,-198 1134.8405,-198 1134.8405,-162 1323.1595,-162 1323.1595,-198"/>
<text text-anchor="middle" x="1229" y="-175.8" font-family="Times,serif" font-size="14.00" fill="#000000">PageNotFoundRoutingModule</text>
</g>
<!-- PageNotFoundRoutingModule&#45;&gt;PageNotFoundModule -->
<g id="edge18" class="edge">
<title>PageNotFoundRoutingModule&#45;&gt;PageNotFoundModule</title>
<path fill="none" stroke="#000000" d="M1166.195,-198.0555C1166.195,-209.439 1166.195,-222 1166.195,-222 1166.195,-222 870.3577,-222 870.3577,-222 870.3577,-222 870.3577,-227.8056 870.3577,-227.8056"/>
<polygon fill="#000000" stroke="#000000" points="866.8577,-227.8055 870.3577,-237.8056 873.8577,-227.8056 866.8577,-227.8055"/>
</g>
<!-- AddPrestationComponent -->
<g id="node21" class="node">
<title>AddPrestationComponent</title>
<polygon fill="#ffffb3" stroke="#000000" points="1249.9284,-122 1088.0716,-122 1088.0716,-86 1249.9284,-86 1249.9284,-122"/>
<text text-anchor="middle" x="1169" y="-99.8" font-family="Times,serif" font-size="14.00" fill="#000000">AddPrestationComponent</text>
</g>
<!-- AddPrestationComponent&#45;&gt;PrestationsModule -->
<g id="edge19" class="edge">
<title>AddPrestationComponent&#45;&gt;PrestationsModule</title>
<path fill="none" stroke="#000000" d="M1091.8369,-122.0439C1091.8369,-134.5633 1091.8369,-149 1091.8369,-149 1091.8369,-149 780.4307,-149 780.4307,-149 780.4307,-149 780.4307,-151.9672 780.4307,-151.9672"/>
<polygon fill="#000000" stroke="#000000" points="776.9308,-151.9671 780.4307,-161.9672 783.9308,-151.9672 776.9308,-151.9671"/>
</g>
<!-- ListPrestationsComponent -->
<g id="node22" class="node">
<title>ListPrestationsComponent</title>
<polygon fill="#ffffb3" stroke="#000000" points="1070.0448,-122 905.9552,-122 905.9552,-86 1070.0448,-86 1070.0448,-122"/>
<text text-anchor="middle" x="988" y="-99.8" font-family="Times,serif" font-size="14.00" fill="#000000">ListPrestationsComponent</text>
</g>
<!-- ListPrestationsComponent&#45;&gt;PrestationsModule -->
<g id="edge20" class="edge">
<title>ListPrestationsComponent&#45;&gt;PrestationsModule</title>
<path fill="none" stroke="#000000" d="M931.3917,-122.1097C931.3917,-131.897 931.3917,-142 931.3917,-142 931.3917,-142 770.4003,-142 770.4003,-142 770.4003,-142 770.4003,-151.8903 770.4003,-151.8903"/>
<polygon fill="#000000" stroke="#000000" points="766.9004,-151.8903 770.4003,-161.8903 773.9004,-151.8904 766.9004,-151.8903"/>
</g>
<!-- PrestationComponent -->
<g id="node23" class="node">
<title>PrestationComponent</title>
<polygon fill="#ffffb3" stroke="#000000" points="887.8216,-122 750.1784,-122 750.1784,-86 887.8216,-86 887.8216,-122"/>
<text text-anchor="middle" x="819" y="-99.8" font-family="Times,serif" font-size="14.00" fill="#000000">PrestationComponent</text>
</g>
<!-- PrestationComponent&#45;&gt;PrestationsModule -->
<g id="edge21" class="edge">
<title>PrestationComponent&#45;&gt;PrestationsModule</title>
<path fill="none" stroke="#000000" d="M760.3698,-122.0109C760.3698,-122.0109 760.3698,-151.855 760.3698,-151.855"/>
<polygon fill="#000000" stroke="#000000" points="756.8699,-151.8549 760.3698,-161.855 763.8699,-151.855 756.8699,-151.8549"/>
</g>
<!-- PrestationsComponent -->
<g id="node24" class="node">
<title>PrestationsComponent</title>
<polygon fill="#ffffb3" stroke="#000000" points="732.266,-122 589.734,-122 589.734,-86 732.266,-86 732.266,-122"/>
<text text-anchor="middle" x="661" y="-99.8" font-family="Times,serif" font-size="14.00" fill="#000000">PrestationsComponent</text>
</g>
<!-- PrestationsComponent&#45;&gt;PrestationsModule -->
<g id="edge22" class="edge">
<title>PrestationsComponent&#45;&gt;PrestationsModule</title>
<path fill="none" stroke="#000000" d="M719.1643,-122.0109C719.1643,-122.0109 719.1643,-151.855 719.1643,-151.855"/>
<polygon fill="#000000" stroke="#000000" points="715.6644,-151.8549 719.1643,-161.855 722.6644,-151.855 715.6644,-151.8549"/>
</g>
<!-- PrestationsRoutingModule -->
<g id="node25" class="node">
<title>PrestationsRoutingModule</title>
<polygon fill="#8dd3c7" stroke="#000000" points="566.101,-122 563.101,-126 542.101,-126 539.101,-122 399.899,-122 399.899,-86 566.101,-86 566.101,-122"/>
<text text-anchor="middle" x="483" y="-99.8" font-family="Times,serif" font-size="14.00" fill="#000000">PrestationsRoutingModule</text>
</g>
<!-- PrestationsRoutingModule&#45;&gt;PrestationsModule -->
<g id="edge23" class="edge">
<title>PrestationsRoutingModule&#45;&gt;PrestationsModule</title>
<path fill="none" stroke="#000000" d="M550.8619,-122.1686C550.8619,-126.0459 550.8619,-129 550.8619,-129 550.8619,-129 705.9457,-129 705.9457,-129 705.9457,-129 705.9457,-151.8757 705.9457,-151.8757"/>
<polygon fill="#000000" stroke="#000000" points="702.4457,-151.8757 705.9457,-161.8757 709.4457,-151.8757 702.4457,-151.8757"/>
</g>
<!-- AddRowComponent -->
<g id="node27" class="node">
<title>AddRowComponent</title>
<polygon fill="#ffffb3" stroke="#000000" points="3864.8823,-198 3733.1177,-198 3733.1177,-162 3864.8823,-162 3864.8823,-198"/>
<text text-anchor="middle" x="3799" y="-175.8" font-family="Times,serif" font-size="14.00" fill="#000000">AddRowComponent</text>
</g>
<!-- AddRowComponent&#45;&gt;SharedModule -->
<g id="edge26" class="edge">
<title>AddRowComponent&#45;&gt;SharedModule</title>
<path fill="none" stroke="#000000" d="M3799,-161.6198C3799,-137.7215 3799,-99 3799,-99 3799,-99 2420.4992,-99 2420.4992,-99"/>
<polygon fill="#000000" stroke="#000000" points="2420.4992,-95.5001 2410.4992,-99 2420.4992,-102.5001 2420.4992,-95.5001"/>
</g>
<!-- StateDirective -->
<g id="node28" class="node">
<title>StateDirective</title>
<polygon fill="#ffffb3" stroke="#000000" points="3715.0758,-198 3618.9242,-198 3618.9242,-162 3715.0758,-162 3715.0758,-198"/>
<text text-anchor="middle" x="3667" y="-175.8" font-family="Times,serif" font-size="14.00" fill="#000000">StateDirective</text>
</g>
<!-- StateDirective&#45;&gt;SharedModule -->
<g id="edge27" class="edge">
<title>StateDirective&#45;&gt;SharedModule</title>
<path fill="none" stroke="#000000" d="M3667,-161.9092C3667,-138.8672 3667,-102 3667,-102 3667,-102 2420.602,-102 2420.602,-102"/>
<polygon fill="#000000" stroke="#000000" points="2420.602,-98.5001 2410.602,-102 2420.6019,-105.5001 2420.602,-98.5001"/>
</g>
<!-- TableauComponent -->
<g id="node29" class="node">
<title>TableauComponent</title>
<polygon fill="#ffffb3" stroke="#000000" points="3601.4201,-198 3474.5799,-198 3474.5799,-162 3601.4201,-162 3601.4201,-198"/>
<text text-anchor="middle" x="3538" y="-175.8" font-family="Times,serif" font-size="14.00" fill="#000000">TableauComponent</text>
</g>
<!-- TableauComponent&#45;&gt;SharedModule -->
<g id="edge28" class="edge">
<title>TableauComponent&#45;&gt;SharedModule</title>
<path fill="none" stroke="#000000" d="M3538,-161.9891C3538,-139.5148 3538,-104 3538,-104 3538,-104 2420.4485,-104 2420.4485,-104"/>
<polygon fill="#000000" stroke="#000000" points="2420.4485,-100.5001 2410.4485,-104 2420.4484,-107.5001 2420.4485,-100.5001"/>
</g>
<!-- TableauLightComponent -->
<g id="node30" class="node">
<title>TableauLightComponent</title>
<polygon fill="#ffffb3" stroke="#000000" points="4452.2534,-198 4295.7466,-198 4295.7466,-162 4452.2534,-162 4452.2534,-198"/>
<text text-anchor="middle" x="4374" y="-175.8" font-family="Times,serif" font-size="14.00" fill="#000000">TableauLightComponent</text>
</g>
<!-- TableauLightComponent&#45;&gt;SharedModule -->
<g id="edge29" class="edge">
<title>TableauLightComponent&#45;&gt;SharedModule</title>
<path fill="none" stroke="#000000" d="M4374,-161.5848C4374,-134.9943 4374,-89 4374,-89 4374,-89 2420.2599,-89 2420.2599,-89"/>
<polygon fill="#000000" stroke="#000000" points="2420.26,-85.5001 2410.2599,-89 2420.2599,-92.5001 2420.26,-85.5001"/>
</g>
<!-- TemplateAComponent -->
<g id="node31" class="node">
<title>TemplateAComponent</title>
<polygon fill="#ffffb3" stroke="#000000" points="4277.3075,-198 4132.6925,-198 4132.6925,-162 4277.3075,-162 4277.3075,-198"/>
<text text-anchor="middle" x="4205" y="-175.8" font-family="Times,serif" font-size="14.00" fill="#000000">TemplateAComponent</text>
</g>
<!-- TemplateAComponent&#45;&gt;SharedModule -->
<g id="edge30" class="edge">
<title>TemplateAComponent&#45;&gt;SharedModule</title>
<path fill="none" stroke="#000000" d="M4205,-161.7663C4205,-135.9906 4205,-92 4205,-92 4205,-92 2420.3225,-92 2420.3225,-92"/>
<polygon fill="#000000" stroke="#000000" points="2420.3226,-88.5001 2410.3225,-92 2420.3225,-95.5001 2420.3226,-88.5001"/>
</g>
<!-- TemplateBComponent -->
<g id="node32" class="node">
<title>TemplateBComponent</title>
<polygon fill="#ffffb3" stroke="#000000" points="4114.5379,-198 3971.4621,-198 3971.4621,-162 4114.5379,-162 4114.5379,-198"/>
<text text-anchor="middle" x="4043" y="-175.8" font-family="Times,serif" font-size="14.00" fill="#000000">TemplateBComponent</text>
</g>
<!-- TemplateBComponent&#45;&gt;SharedModule -->
<g id="edge31" class="edge">
<title>TemplateBComponent&#45;&gt;SharedModule</title>
<path fill="none" stroke="#000000" d="M4043,-161.7616C4043,-136.5171 4043,-94 4043,-94 4043,-94 2420.4281,-94 2420.4281,-94"/>
<polygon fill="#000000" stroke="#000000" points="2420.4282,-90.5001 2410.4281,-94 2420.4281,-97.5001 2420.4282,-90.5001"/>
</g>
<!-- TotalPipe -->
<g id="node33" class="node">
<title>TotalPipe</title>
<polygon fill="#ffffb3" stroke="#000000" points="3953.4376,-198 3882.5624,-198 3882.5624,-162 3953.4376,-162 3953.4376,-198"/>
<text text-anchor="middle" x="3918" y="-175.8" font-family="Times,serif" font-size="14.00" fill="#000000">TotalPipe</text>
</g>
<!-- TotalPipe&#45;&gt;SharedModule -->
<g id="edge32" class="edge">
<title>TotalPipe&#45;&gt;SharedModule</title>
<path fill="none" stroke="#000000" d="M3918,-161.9902C3918,-137.5793 3918,-97 3918,-97 3918,-97 2420.6042,-97 2420.6042,-97"/>
<polygon fill="#000000" stroke="#000000" points="2420.6043,-93.5001 2410.6042,-97 2420.6042,-100.5001 2420.6043,-93.5001"/>
</g>
<!-- FooterComponent -->
<g id="node41" class="node">
<title>FooterComponent</title>
<polygon fill="#ffffb3" stroke="#000000" points="403.8809,-198 286.1191,-198 286.1191,-162 403.8809,-162 403.8809,-198"/>
<text text-anchor="middle" x="345" y="-175.8" font-family="Times,serif" font-size="14.00" fill="#000000">FooterComponent</text>
</g>
<!-- FooterComponent&#45;&gt;UiModule -->
<g id="edge40" class="edge">
<title>FooterComponent&#45;&gt;UiModule</title>
<path fill="none" stroke="#000000" d="M345,-198.0449C345,-219.6623 345,-253 345,-253 345,-253 566.2977,-253 566.2977,-253"/>
<polygon fill="#000000" stroke="#000000" points="566.2977,-256.5001 576.2977,-253 566.2976,-249.5001 566.2977,-256.5001"/>
</g>
<!-- HeaderComponent -->
<g id="node42" class="node">
<title>HeaderComponent</title>
<polygon fill="#ffffb3" stroke="#000000" points="267.7437,-198 146.2563,-198 146.2563,-162 267.7437,-162 267.7437,-198"/>
<text text-anchor="middle" x="207" y="-175.8" font-family="Times,serif" font-size="14.00" fill="#000000">HeaderComponent</text>
</g>
<!-- HeaderComponent&#45;&gt;UiModule -->
<g id="edge41" class="edge">
<title>HeaderComponent&#45;&gt;UiModule</title>
<path fill="none" stroke="#000000" d="M207,-198.1532C207,-221.7566 207,-260 207,-260 207,-260 566.2541,-260 566.2541,-260"/>
<polygon fill="#000000" stroke="#000000" points="566.2542,-263.5001 576.2541,-260 566.2541,-256.5001 566.2542,-263.5001"/>
</g>
<!-- NavComponent -->
<g id="node43" class="node">
<title>NavComponent</title>
<polygon fill="#ffffb3" stroke="#000000" points="640.1542,-198 535.8458,-198 535.8458,-162 640.1542,-162 640.1542,-198"/>
<text text-anchor="middle" x="588" y="-175.8" font-family="Times,serif" font-size="14.00" fill="#000000">NavComponent</text>
</g>
<!-- NavComponent&#45;&gt;UiModule -->
<g id="edge42" class="edge">
<title>NavComponent&#45;&gt;UiModule</title>
<path fill="none" stroke="#000000" d="M608.2767,-198.0109C608.2767,-198.0109 608.2767,-227.855 608.2767,-227.855"/>
<polygon fill="#000000" stroke="#000000" points="604.7767,-227.8549 608.2767,-237.855 611.7767,-227.855 604.7767,-227.8549"/>
</g>
<!-- UiComponent -->
<g id="node44" class="node">
<title>UiComponent</title>
<polygon fill="#ffffb3" stroke="#000000" points="517.8302,-198 422.1698,-198 422.1698,-162 517.8302,-162 517.8302,-198"/>
<text text-anchor="middle" x="470" y="-175.8" font-family="Times,serif" font-size="14.00" fill="#000000">UiComponent</text>
</g>
<!-- UiComponent&#45;&gt;UiModule -->
<g id="edge43" class="edge">
<title>UiComponent&#45;&gt;UiModule</title>
<path fill="none" stroke="#000000" d="M470,-198.0348C470,-217.5762 470,-246 470,-246 470,-246 566.1739,-246 566.1739,-246"/>
<polygon fill="#000000" stroke="#000000" points="566.174,-249.5001 576.1739,-246 566.1739,-242.5001 566.174,-249.5001"/>
</g>
</g>
</svg>
